<mxfile host="app.diagrams.net" modified="2023-10-19T17:22:38.687Z" agent="Mozilla/5.0 (Windows NT 10.0; Win64; x64) AppleWebKit/537.36 (KHTML, like Gecko) Chrome/118.0.0.0 Safari/537.36" etag="xaxvFrlOAik8v5CGLLSk" version="22.0.5" type="github">
  <diagram name="PÃ¡gina-1" id="a1RyxE_Y-MSOX4j9OYDZ">
    <mxGraphModel dx="2812" dy="859" grid="1" gridSize="10" guides="1" tooltips="1" connect="1" arrows="1" fold="1" page="1" pageScale="1" pageWidth="827" pageHeight="1169" math="0" shadow="0">
      <root>
        <mxCell id="0" />
        <mxCell id="1" parent="0" />
        <mxCell id="EKyC5M8UkJn82JTUg3wf-1" value="Inmueble" style="whiteSpace=wrap;html=1;align=center;" parent="1" vertex="1">
          <mxGeometry x="830" y="560" width="100" height="40" as="geometry" />
        </mxCell>
        <mxCell id="EKyC5M8UkJn82JTUg3wf-2" value="Piso" style="whiteSpace=wrap;html=1;align=center;" parent="1" vertex="1">
          <mxGeometry x="1011" y="970" width="100" height="40" as="geometry" />
        </mxCell>
        <mxCell id="EKyC5M8UkJn82JTUg3wf-3" value="Local" style="whiteSpace=wrap;html=1;align=center;" parent="1" vertex="1">
          <mxGeometry x="1251" y="970" width="100" height="40" as="geometry" />
        </mxCell>
        <mxCell id="EKyC5M8UkJn82JTUg3wf-4" value="Garaje" style="whiteSpace=wrap;html=1;align=center;" parent="1" vertex="1">
          <mxGeometry x="761" y="970" width="100" height="40" as="geometry" />
        </mxCell>
        <mxCell id="EKyC5M8UkJn82JTUg3wf-5" value="Codigo_inmueble" style="ellipse;whiteSpace=wrap;html=1;align=center;fontStyle=4;" parent="1" vertex="1">
          <mxGeometry x="830" y="340" width="100" height="40" as="geometry" />
        </mxCell>
        <mxCell id="EKyC5M8UkJn82JTUg3wf-6" value="Metros" style="ellipse;whiteSpace=wrap;html=1;align=center;" parent="1" vertex="1">
          <mxGeometry x="1090" y="560" width="100" height="40" as="geometry" />
        </mxCell>
        <mxCell id="EKyC5M8UkJn82JTUg3wf-7" value="Descripcion" style="ellipse;whiteSpace=wrap;html=1;align=center;" parent="1" vertex="1">
          <mxGeometry x="1100" y="430" width="100" height="40" as="geometry" />
        </mxCell>
        <mxCell id="EKyC5M8UkJn82JTUg3wf-8" value="Direccion" style="ellipse;whiteSpace=wrap;html=1;align=center;" parent="1" vertex="1">
          <mxGeometry x="990" y="340" width="100" height="40" as="geometry" />
        </mxCell>
        <mxCell id="EKyC5M8UkJn82JTUg3wf-9" value="Codigo_especial" style="ellipse;whiteSpace=wrap;html=1;align=center;" parent="1" vertex="1">
          <mxGeometry x="1011" y="1090" width="100" height="40" as="geometry" />
        </mxCell>
        <mxCell id="EKyC5M8UkJn82JTUg3wf-10" value="Uso" style="ellipse;whiteSpace=wrap;html=1;align=center;" parent="1" vertex="1">
          <mxGeometry x="1171" y="1090" width="100" height="40" as="geometry" />
        </mxCell>
        <mxCell id="EKyC5M8UkJn82JTUg3wf-11" value="Tiene_servicio" style="ellipse;whiteSpace=wrap;html=1;align=center;" parent="1" vertex="1">
          <mxGeometry x="1331" y="1090" width="100" height="40" as="geometry" />
        </mxCell>
        <mxCell id="EKyC5M8UkJn82JTUg3wf-12" value="" style="endArrow=none;html=1;rounded=0;entryX=0.5;entryY=1;entryDx=0;entryDy=0;" parent="1" source="EKyC5M8UkJn82JTUg3wf-9" target="EKyC5M8UkJn82JTUg3wf-2" edge="1">
          <mxGeometry relative="1" as="geometry">
            <mxPoint x="891" y="990" as="sourcePoint" />
            <mxPoint x="1051" y="990" as="targetPoint" />
          </mxGeometry>
        </mxCell>
        <mxCell id="EKyC5M8UkJn82JTUg3wf-13" value="" style="endArrow=none;html=1;rounded=0;entryX=0.25;entryY=1;entryDx=0;entryDy=0;exitX=0.5;exitY=0;exitDx=0;exitDy=0;" parent="1" source="EKyC5M8UkJn82JTUg3wf-10" target="EKyC5M8UkJn82JTUg3wf-3" edge="1">
          <mxGeometry relative="1" as="geometry">
            <mxPoint x="1071" y="1100" as="sourcePoint" />
            <mxPoint x="1071" y="1020" as="targetPoint" />
          </mxGeometry>
        </mxCell>
        <mxCell id="EKyC5M8UkJn82JTUg3wf-14" value="" style="endArrow=none;html=1;rounded=0;entryX=0.75;entryY=1;entryDx=0;entryDy=0;exitX=0.5;exitY=0;exitDx=0;exitDy=0;" parent="1" source="EKyC5M8UkJn82JTUg3wf-11" target="EKyC5M8UkJn82JTUg3wf-3" edge="1">
          <mxGeometry relative="1" as="geometry">
            <mxPoint x="1231" y="1100" as="sourcePoint" />
            <mxPoint x="1266" y="1020" as="targetPoint" />
          </mxGeometry>
        </mxCell>
        <mxCell id="EKyC5M8UkJn82JTUg3wf-15" value="Numero" style="ellipse;whiteSpace=wrap;html=1;align=center;" parent="1" vertex="1">
          <mxGeometry x="661" y="1090" width="100" height="40" as="geometry" />
        </mxCell>
        <mxCell id="EKyC5M8UkJn82JTUg3wf-16" value="Planta" style="ellipse;whiteSpace=wrap;html=1;align=center;" parent="1" vertex="1">
          <mxGeometry x="554" y="1060" width="100" height="40" as="geometry" />
        </mxCell>
        <mxCell id="EKyC5M8UkJn82JTUg3wf-17" value="" style="endArrow=none;html=1;rounded=0;entryX=0;entryY=0.5;entryDx=0;entryDy=0;exitX=1;exitY=0;exitDx=0;exitDy=0;" parent="1" source="EKyC5M8UkJn82JTUg3wf-16" target="EKyC5M8UkJn82JTUg3wf-4" edge="1">
          <mxGeometry relative="1" as="geometry">
            <mxPoint x="1071" y="1100" as="sourcePoint" />
            <mxPoint x="1071" y="1020" as="targetPoint" />
          </mxGeometry>
        </mxCell>
        <mxCell id="EKyC5M8UkJn82JTUg3wf-18" value="" style="endArrow=none;html=1;rounded=0;entryX=0.25;entryY=1;entryDx=0;entryDy=0;exitX=0.5;exitY=0;exitDx=0;exitDy=0;" parent="1" source="EKyC5M8UkJn82JTUg3wf-15" target="EKyC5M8UkJn82JTUg3wf-4" edge="1">
          <mxGeometry relative="1" as="geometry">
            <mxPoint x="901" y="1100" as="sourcePoint" />
            <mxPoint x="846" y="1020" as="targetPoint" />
          </mxGeometry>
        </mxCell>
        <mxCell id="EKyC5M8UkJn82JTUg3wf-19" value="" style="endArrow=none;html=1;rounded=0;entryX=1;entryY=0.5;entryDx=0;entryDy=0;exitX=0;exitY=0.5;exitDx=0;exitDy=0;" parent="1" source="EKyC5M8UkJn82JTUg3wf-6" target="EKyC5M8UkJn82JTUg3wf-1" edge="1">
          <mxGeometry relative="1" as="geometry">
            <mxPoint x="920" y="570" as="sourcePoint" />
            <mxPoint x="710" y="650" as="targetPoint" />
          </mxGeometry>
        </mxCell>
        <mxCell id="EKyC5M8UkJn82JTUg3wf-20" value="" style="endArrow=none;html=1;rounded=0;entryX=0.5;entryY=0;entryDx=0;entryDy=0;exitX=0.5;exitY=1;exitDx=0;exitDy=0;" parent="1" source="EKyC5M8UkJn82JTUg3wf-5" target="EKyC5M8UkJn82JTUg3wf-1" edge="1">
          <mxGeometry relative="1" as="geometry">
            <mxPoint x="550" y="550" as="sourcePoint" />
            <mxPoint x="710" y="550" as="targetPoint" />
          </mxGeometry>
        </mxCell>
        <mxCell id="EKyC5M8UkJn82JTUg3wf-21" value="" style="endArrow=none;html=1;rounded=0;entryX=0.5;entryY=1;entryDx=0;entryDy=0;exitX=0.75;exitY=0;exitDx=0;exitDy=0;" parent="1" source="EKyC5M8UkJn82JTUg3wf-1" target="EKyC5M8UkJn82JTUg3wf-8" edge="1">
          <mxGeometry relative="1" as="geometry">
            <mxPoint x="550" y="550" as="sourcePoint" />
            <mxPoint x="710" y="550" as="targetPoint" />
          </mxGeometry>
        </mxCell>
        <mxCell id="EKyC5M8UkJn82JTUg3wf-22" value="" style="endArrow=none;html=1;rounded=0;entryX=0;entryY=1;entryDx=0;entryDy=0;exitX=1;exitY=0;exitDx=0;exitDy=0;" parent="1" source="EKyC5M8UkJn82JTUg3wf-1" target="EKyC5M8UkJn82JTUg3wf-7" edge="1">
          <mxGeometry relative="1" as="geometry">
            <mxPoint x="550" y="550" as="sourcePoint" />
            <mxPoint x="710" y="550" as="targetPoint" />
          </mxGeometry>
        </mxCell>
        <mxCell id="EKyC5M8UkJn82JTUg3wf-23" value="Cliente" style="whiteSpace=wrap;html=1;align=center;" parent="1" vertex="1">
          <mxGeometry x="-310" y="930" width="100" height="40" as="geometry" />
        </mxCell>
        <mxCell id="EKyC5M8UkJn82JTUg3wf-24" value="Trabajador" style="whiteSpace=wrap;html=1;align=center;" parent="1" vertex="1">
          <mxGeometry x="-510" y="930" width="100" height="40" as="geometry" />
        </mxCell>
        <mxCell id="EKyC5M8UkJn82JTUg3wf-25" value="Persona" style="whiteSpace=wrap;html=1;align=center;" parent="1" vertex="1">
          <mxGeometry x="-380" y="495" width="100" height="40" as="geometry" />
        </mxCell>
        <mxCell id="EKyC5M8UkJn82JTUg3wf-26" value="DNI" style="ellipse;whiteSpace=wrap;html=1;align=center;fontStyle=4;" parent="1" vertex="1">
          <mxGeometry x="-380" y="340" width="100" height="40" as="geometry" />
        </mxCell>
        <mxCell id="EKyC5M8UkJn82JTUg3wf-27" value="Telefono_fijo" style="ellipse;whiteSpace=wrap;html=1;align=center;" parent="1" vertex="1">
          <mxGeometry x="-280" y="380" width="100" height="40" as="geometry" />
        </mxCell>
        <mxCell id="EKyC5M8UkJn82JTUg3wf-28" value="Movil" style="ellipse;whiteSpace=wrap;html=1;align=center;" parent="1" vertex="1">
          <mxGeometry x="-520" y="500" width="100" height="40" as="geometry" />
        </mxCell>
        <mxCell id="EKyC5M8UkJn82JTUg3wf-29" value="Apellido" style="ellipse;whiteSpace=wrap;html=1;align=center;" parent="1" vertex="1">
          <mxGeometry x="-510" y="440" width="100" height="40" as="geometry" />
        </mxCell>
        <mxCell id="EKyC5M8UkJn82JTUg3wf-30" value="Nombre" style="ellipse;whiteSpace=wrap;html=1;align=center;" parent="1" vertex="1">
          <mxGeometry x="-480" y="380" width="100" height="40" as="geometry" />
        </mxCell>
        <mxCell id="EKyC5M8UkJn82JTUg3wf-31" value="" style="endArrow=none;html=1;rounded=0;entryX=0.5;entryY=1;entryDx=0;entryDy=0;exitX=0.5;exitY=0;exitDx=0;exitDy=0;" parent="1" source="EKyC5M8UkJn82JTUg3wf-25" target="EKyC5M8UkJn82JTUg3wf-26" edge="1">
          <mxGeometry relative="1" as="geometry">
            <mxPoint x="-70" y="680" as="sourcePoint" />
            <mxPoint x="90" y="680" as="targetPoint" />
          </mxGeometry>
        </mxCell>
        <mxCell id="EKyC5M8UkJn82JTUg3wf-32" value="" style="endArrow=none;html=1;rounded=0;entryX=1;entryY=0.5;entryDx=0;entryDy=0;exitX=0.25;exitY=0;exitDx=0;exitDy=0;" parent="1" source="EKyC5M8UkJn82JTUg3wf-25" target="EKyC5M8UkJn82JTUg3wf-30" edge="1">
          <mxGeometry relative="1" as="geometry">
            <mxPoint x="-70" y="680" as="sourcePoint" />
            <mxPoint x="90" y="680" as="targetPoint" />
          </mxGeometry>
        </mxCell>
        <mxCell id="EKyC5M8UkJn82JTUg3wf-33" value="" style="endArrow=none;html=1;rounded=0;entryX=0;entryY=0;entryDx=0;entryDy=0;exitX=1;exitY=0.5;exitDx=0;exitDy=0;" parent="1" source="EKyC5M8UkJn82JTUg3wf-29" target="EKyC5M8UkJn82JTUg3wf-25" edge="1">
          <mxGeometry relative="1" as="geometry">
            <mxPoint x="-420" y="520" as="sourcePoint" />
            <mxPoint x="90" y="680" as="targetPoint" />
          </mxGeometry>
        </mxCell>
        <mxCell id="EKyC5M8UkJn82JTUg3wf-34" value="" style="endArrow=none;html=1;rounded=0;entryX=0;entryY=0.5;entryDx=0;entryDy=0;exitX=0.75;exitY=0;exitDx=0;exitDy=0;" parent="1" source="EKyC5M8UkJn82JTUg3wf-25" target="EKyC5M8UkJn82JTUg3wf-27" edge="1">
          <mxGeometry relative="1" as="geometry">
            <mxPoint x="-345" y="510" as="sourcePoint" />
            <mxPoint x="-370" y="410" as="targetPoint" />
          </mxGeometry>
        </mxCell>
        <mxCell id="EKyC5M8UkJn82JTUg3wf-35" value="" style="endArrow=none;html=1;rounded=0;entryX=1;entryY=0.5;entryDx=0;entryDy=0;exitX=0;exitY=0.5;exitDx=0;exitDy=0;" parent="1" source="EKyC5M8UkJn82JTUg3wf-25" target="EKyC5M8UkJn82JTUg3wf-28" edge="1">
          <mxGeometry relative="1" as="geometry">
            <mxPoint x="-70" y="680" as="sourcePoint" />
            <mxPoint x="90" y="680" as="targetPoint" />
          </mxGeometry>
        </mxCell>
        <mxCell id="EKyC5M8UkJn82JTUg3wf-36" value="" style="endArrow=none;html=1;rounded=0;entryX=0.5;entryY=1;entryDx=0;entryDy=0;exitX=0.5;exitY=0;exitDx=0;exitDy=0;" parent="1" source="EKyC5M8UkJn82JTUg3wf-127" target="EKyC5M8UkJn82JTUg3wf-24" edge="1">
          <mxGeometry relative="1" as="geometry">
            <mxPoint x="-440" y="1030" as="sourcePoint" />
            <mxPoint x="60" y="1050" as="targetPoint" />
          </mxGeometry>
        </mxCell>
        <mxCell id="EKyC5M8UkJn82JTUg3wf-37" value="" style="endArrow=none;html=1;rounded=0;exitX=0.5;exitY=0;exitDx=0;exitDy=0;entryX=0.5;entryY=1;entryDx=0;entryDy=0;" parent="1" source="EKyC5M8UkJn82JTUg3wf-128" target="EKyC5M8UkJn82JTUg3wf-23" edge="1">
          <mxGeometry relative="1" as="geometry">
            <mxPoint x="-260" y="1050" as="sourcePoint" />
            <mxPoint x="-450" y="980" as="targetPoint" />
          </mxGeometry>
        </mxCell>
        <mxCell id="EKyC5M8UkJn82JTUg3wf-38" value="Adquirir" style="shape=rhombus;perimeter=rhombusPerimeter;whiteSpace=wrap;html=1;align=center;" parent="1" vertex="1">
          <mxGeometry x="-60" y="330" width="120" height="60" as="geometry" />
        </mxCell>
        <mxCell id="EKyC5M8UkJn82JTUg3wf-39" value="" style="endArrow=none;html=1;rounded=0;entryX=0;entryY=0.5;entryDx=0;entryDy=0;exitX=1;exitY=0.5;exitDx=0;exitDy=0;" parent="1" source="EKyC5M8UkJn82JTUg3wf-122" target="EKyC5M8UkJn82JTUg3wf-40" edge="1">
          <mxGeometry relative="1" as="geometry">
            <mxPoint x="430" y="400" as="sourcePoint" />
            <mxPoint x="450" y="470" as="targetPoint" />
            <Array as="points">
              <mxPoint x="610" y="535" />
            </Array>
          </mxGeometry>
        </mxCell>
        <mxCell id="EKyC5M8UkJn82JTUg3wf-40" value="1, 1" style="text;strokeColor=none;fillColor=none;spacingLeft=4;spacingRight=4;overflow=hidden;rotatable=0;points=[[0,0.5],[1,0.5]];portConstraint=eastwest;fontSize=12;whiteSpace=wrap;html=1;" parent="1" vertex="1">
          <mxGeometry x="721" y="520" width="40" height="30" as="geometry" />
        </mxCell>
        <mxCell id="EKyC5M8UkJn82JTUg3wf-41" value="" style="endArrow=none;html=1;rounded=0;entryX=0;entryY=0.5;entryDx=0;entryDy=0;" parent="1" target="EKyC5M8UkJn82JTUg3wf-42" edge="1">
          <mxGeometry relative="1" as="geometry">
            <mxPoint x="-210" y="930" as="sourcePoint" />
            <mxPoint x="-40" y="450" as="targetPoint" />
            <Array as="points">
              <mxPoint x="-210" y="515" />
            </Array>
          </mxGeometry>
        </mxCell>
        <mxCell id="EKyC5M8UkJn82JTUg3wf-42" value="1, N" style="text;strokeColor=none;fillColor=none;spacingLeft=4;spacingRight=4;overflow=hidden;rotatable=0;points=[[0,0.5],[1,0.5]];portConstraint=eastwest;fontSize=12;whiteSpace=wrap;html=1;" parent="1" vertex="1">
          <mxGeometry x="-190" y="500" width="40" height="30" as="geometry" />
        </mxCell>
        <mxCell id="EKyC5M8UkJn82JTUg3wf-43" value="" style="endArrow=none;html=1;rounded=0;exitX=1;exitY=0.5;exitDx=0;exitDy=0;entryX=0;entryY=0.5;entryDx=0;entryDy=0;" parent="1" source="EKyC5M8UkJn82JTUg3wf-42" target="EKyC5M8UkJn82JTUg3wf-38" edge="1">
          <mxGeometry relative="1" as="geometry">
            <mxPoint x="160" y="750" as="sourcePoint" />
            <mxPoint x="320" y="750" as="targetPoint" />
            <Array as="points">
              <mxPoint x="-60" y="515" />
            </Array>
          </mxGeometry>
        </mxCell>
        <mxCell id="EKyC5M8UkJn82JTUg3wf-44" value="Valor" style="ellipse;whiteSpace=wrap;html=1;align=center;" parent="1" vertex="1">
          <mxGeometry x="90" y="70" width="100" height="40" as="geometry" />
        </mxCell>
        <mxCell id="EKyC5M8UkJn82JTUg3wf-45" value="Fecha" style="ellipse;whiteSpace=wrap;html=1;align=center;" parent="1" vertex="1">
          <mxGeometry x="320" y="70" width="100" height="40" as="geometry" />
        </mxCell>
        <mxCell id="EKyC5M8UkJn82JTUg3wf-46" value="" style="endArrow=none;html=1;rounded=0;exitX=0.5;exitY=0;exitDx=0;exitDy=0;entryX=0.5;entryY=1;entryDx=0;entryDy=0;" parent="1" source="EKyC5M8UkJn82JTUg3wf-107" target="EKyC5M8UkJn82JTUg3wf-108" edge="1">
          <mxGeometry relative="1" as="geometry">
            <mxPoint x="160" y="450" as="sourcePoint" />
            <mxPoint x="240" y="130" as="targetPoint" />
          </mxGeometry>
        </mxCell>
        <mxCell id="EKyC5M8UkJn82JTUg3wf-47" value="" style="endArrow=none;html=1;rounded=0;exitX=0.5;exitY=1;exitDx=0;exitDy=0;entryX=0.25;entryY=0;entryDx=0;entryDy=0;" parent="1" source="EKyC5M8UkJn82JTUg3wf-44" target="EKyC5M8UkJn82JTUg3wf-107" edge="1">
          <mxGeometry relative="1" as="geometry">
            <mxPoint x="160" y="450" as="sourcePoint" />
            <mxPoint x="320" y="450" as="targetPoint" />
          </mxGeometry>
        </mxCell>
        <mxCell id="EKyC5M8UkJn82JTUg3wf-48" value="" style="endArrow=none;html=1;rounded=0;entryX=0.5;entryY=1;entryDx=0;entryDy=0;exitX=0.75;exitY=0;exitDx=0;exitDy=0;" parent="1" source="EKyC5M8UkJn82JTUg3wf-107" target="EKyC5M8UkJn82JTUg3wf-45" edge="1">
          <mxGeometry relative="1" as="geometry">
            <mxPoint x="160" y="450" as="sourcePoint" />
            <mxPoint x="320" y="450" as="targetPoint" />
          </mxGeometry>
        </mxCell>
        <mxCell id="EKyC5M8UkJn82JTUg3wf-49" value="Alquiler" style="whiteSpace=wrap;html=1;align=center;" parent="1" vertex="1">
          <mxGeometry x="210" y="770" width="100" height="40" as="geometry" />
        </mxCell>
        <mxCell id="EKyC5M8UkJn82JTUg3wf-50" value="Arrendar" style="shape=rhombus;perimeter=rhombusPerimeter;whiteSpace=wrap;html=1;align=center;" parent="1" vertex="1">
          <mxGeometry x="450" y="660" width="120" height="60" as="geometry" />
        </mxCell>
        <mxCell id="EKyC5M8UkJn82JTUg3wf-51" value="Gestionar" style="shape=rhombus;perimeter=rhombusPerimeter;whiteSpace=wrap;html=1;align=center;" parent="1" vertex="1">
          <mxGeometry x="-10" y="960" width="120" height="60" as="geometry" />
        </mxCell>
        <mxCell id="EKyC5M8UkJn82JTUg3wf-52" value="ID" style="ellipse;whiteSpace=wrap;html=1;align=center;fontStyle=4;" parent="1" vertex="1">
          <mxGeometry x="440" y="770" width="100" height="40" as="geometry" />
        </mxCell>
        <mxCell id="EKyC5M8UkJn82JTUg3wf-53" value="Numero_alquiler" style="ellipse;whiteSpace=wrap;html=1;align=center;" parent="1" vertex="1">
          <mxGeometry x="440" y="850" width="100" height="40" as="geometry" />
        </mxCell>
        <mxCell id="EKyC5M8UkJn82JTUg3wf-54" value="Valor_pago" style="ellipse;whiteSpace=wrap;html=1;align=center;" parent="1" vertex="1">
          <mxGeometry x="170" y="1400" width="100" height="40" as="geometry" />
        </mxCell>
        <mxCell id="EKyC5M8UkJn82JTUg3wf-55" value="AÃ±o" style="ellipse;whiteSpace=wrap;html=1;align=center;" parent="1" vertex="1">
          <mxGeometry x="440" y="1400" width="100" height="40" as="geometry" />
        </mxCell>
        <mxCell id="EKyC5M8UkJn82JTUg3wf-56" value="Mes" style="ellipse;whiteSpace=wrap;html=1;align=center;" parent="1" vertex="1">
          <mxGeometry x="470" y="1329" width="100" height="40" as="geometry" />
        </mxCell>
        <mxCell id="EKyC5M8UkJn82JTUg3wf-57" value="" style="endArrow=none;html=1;rounded=0;entryX=0;entryY=1;entryDx=0;entryDy=0;exitX=0.5;exitY=-0.1;exitDx=0;exitDy=0;exitPerimeter=0;" parent="1" source="EKyC5M8UkJn82JTUg3wf-60" target="EKyC5M8UkJn82JTUg3wf-1" edge="1">
          <mxGeometry relative="1" as="geometry">
            <mxPoint x="670" y="650" as="sourcePoint" />
            <mxPoint x="260" y="600" as="targetPoint" />
            <Array as="points">
              <mxPoint x="670" y="600" />
            </Array>
          </mxGeometry>
        </mxCell>
        <mxCell id="EKyC5M8UkJn82JTUg3wf-58" value="" style="endArrow=none;html=1;rounded=0;entryX=0;entryY=0.5;entryDx=0;entryDy=0;exitX=0.5;exitY=-0.167;exitDx=0;exitDy=0;exitPerimeter=0;" parent="1" source="EKyC5M8UkJn82JTUg3wf-61" target="EKyC5M8UkJn82JTUg3wf-50" edge="1">
          <mxGeometry relative="1" as="geometry">
            <mxPoint x="100" y="600" as="sourcePoint" />
            <mxPoint x="260" y="600" as="targetPoint" />
            <Array as="points">
              <mxPoint x="310" y="690" />
            </Array>
          </mxGeometry>
        </mxCell>
        <mxCell id="EKyC5M8UkJn82JTUg3wf-59" value="" style="endArrow=none;html=1;rounded=0;entryX=0.525;entryY=1.033;entryDx=0;entryDy=0;exitX=1;exitY=0.5;exitDx=0;exitDy=0;entryPerimeter=0;" parent="1" source="EKyC5M8UkJn82JTUg3wf-50" target="EKyC5M8UkJn82JTUg3wf-60" edge="1">
          <mxGeometry relative="1" as="geometry">
            <mxPoint x="570" y="690" as="sourcePoint" />
            <mxPoint x="670" y="610" as="targetPoint" />
            <Array as="points">
              <mxPoint x="670" y="690" />
            </Array>
          </mxGeometry>
        </mxCell>
        <mxCell id="EKyC5M8UkJn82JTUg3wf-60" value="1,&amp;nbsp; 1" style="text;strokeColor=none;fillColor=none;spacingLeft=4;spacingRight=4;overflow=hidden;rotatable=0;points=[[0,0.5],[1,0.5]];portConstraint=eastwest;fontSize=12;whiteSpace=wrap;html=1;" parent="1" vertex="1">
          <mxGeometry x="650" y="640" width="40" height="30" as="geometry" />
        </mxCell>
        <mxCell id="EKyC5M8UkJn82JTUg3wf-61" value="1, N" style="text;strokeColor=none;fillColor=none;spacingLeft=4;spacingRight=4;overflow=hidden;rotatable=0;points=[[0,0.5],[1,0.5]];portConstraint=eastwest;fontSize=12;whiteSpace=wrap;html=1;" parent="1" vertex="1">
          <mxGeometry x="290" y="720" width="40" height="30" as="geometry" />
        </mxCell>
        <mxCell id="EKyC5M8UkJn82JTUg3wf-62" value="" style="endArrow=none;html=1;rounded=0;exitX=1;exitY=0;exitDx=0;exitDy=0;" parent="1" source="EKyC5M8UkJn82JTUg3wf-49" edge="1">
          <mxGeometry relative="1" as="geometry">
            <mxPoint x="100" y="800" as="sourcePoint" />
            <mxPoint x="310" y="750" as="targetPoint" />
          </mxGeometry>
        </mxCell>
        <mxCell id="EKyC5M8UkJn82JTUg3wf-63" value="" style="endArrow=none;html=1;rounded=0;entryX=0;entryY=1;entryDx=0;entryDy=0;exitX=0.5;exitY=-0.033;exitDx=0;exitDy=0;exitPerimeter=0;" parent="1" source="EKyC5M8UkJn82JTUg3wf-72" target="EKyC5M8UkJn82JTUg3wf-49" edge="1">
          <mxGeometry relative="1" as="geometry">
            <mxPoint x="100" y="800" as="sourcePoint" />
            <mxPoint x="260" y="800" as="targetPoint" />
            <Array as="points" />
          </mxGeometry>
        </mxCell>
        <mxCell id="EKyC5M8UkJn82JTUg3wf-64" value="Solicitar" style="shape=rhombus;perimeter=rhombusPerimeter;whiteSpace=wrap;html=1;align=center;" parent="1" vertex="1">
          <mxGeometry x="-80" y="760" width="120" height="60" as="geometry" />
        </mxCell>
        <mxCell id="EKyC5M8UkJn82JTUg3wf-65" value="" style="endArrow=none;html=1;rounded=0;exitX=1;exitY=0.5;exitDx=0;exitDy=0;entryX=0;entryY=0.5;entryDx=0;entryDy=0;" parent="1" source="EKyC5M8UkJn82JTUg3wf-76" target="EKyC5M8UkJn82JTUg3wf-64" edge="1">
          <mxGeometry relative="1" as="geometry">
            <mxPoint x="100" y="1000" as="sourcePoint" />
            <mxPoint x="260" y="1000" as="targetPoint" />
            <Array as="points">
              <mxPoint x="-80" y="845" />
            </Array>
          </mxGeometry>
        </mxCell>
        <mxCell id="EKyC5M8UkJn82JTUg3wf-66" value="" style="endArrow=none;html=1;rounded=0;entryX=0;entryY=0.5;entryDx=0;entryDy=0;exitX=1;exitY=0.5;exitDx=0;exitDy=0;" parent="1" source="EKyC5M8UkJn82JTUg3wf-75" target="EKyC5M8UkJn82JTUg3wf-49" edge="1">
          <mxGeometry relative="1" as="geometry">
            <mxPoint x="100" y="1000" as="sourcePoint" />
            <mxPoint x="260" y="1000" as="targetPoint" />
          </mxGeometry>
        </mxCell>
        <mxCell id="EKyC5M8UkJn82JTUg3wf-67" value="" style="endArrow=none;html=1;rounded=0;exitX=1;exitY=1;exitDx=0;exitDy=0;entryX=0;entryY=0;entryDx=0;entryDy=0;" parent="1" source="EKyC5M8UkJn82JTUg3wf-49" target="EKyC5M8UkJn82JTUg3wf-53" edge="1">
          <mxGeometry relative="1" as="geometry">
            <mxPoint x="100" y="1000" as="sourcePoint" />
            <mxPoint x="260" y="1000" as="targetPoint" />
          </mxGeometry>
        </mxCell>
        <mxCell id="EKyC5M8UkJn82JTUg3wf-68" value="" style="endArrow=none;html=1;rounded=0;exitX=0;exitY=1;exitDx=0;exitDy=0;entryX=0.5;entryY=0;entryDx=0;entryDy=0;" parent="1" source="EKyC5M8UkJn82JTUg3wf-112" target="EKyC5M8UkJn82JTUg3wf-54" edge="1">
          <mxGeometry relative="1" as="geometry">
            <mxPoint x="290" y="870" as="sourcePoint" />
            <mxPoint x="310" y="1020" as="targetPoint" />
          </mxGeometry>
        </mxCell>
        <mxCell id="EKyC5M8UkJn82JTUg3wf-69" value="" style="endArrow=none;html=1;rounded=0;exitX=0.75;exitY=1;exitDx=0;exitDy=0;entryX=0;entryY=0.5;entryDx=0;entryDy=0;" parent="1" source="EKyC5M8UkJn82JTUg3wf-112" target="EKyC5M8UkJn82JTUg3wf-55" edge="1">
          <mxGeometry relative="1" as="geometry">
            <mxPoint x="315" y="870" as="sourcePoint" />
            <mxPoint x="385" y="1026" as="targetPoint" />
          </mxGeometry>
        </mxCell>
        <mxCell id="EKyC5M8UkJn82JTUg3wf-70" value="" style="endArrow=none;html=1;rounded=0;exitX=1;exitY=1;exitDx=0;exitDy=0;entryX=0;entryY=0.5;entryDx=0;entryDy=0;" parent="1" source="EKyC5M8UkJn82JTUg3wf-112" target="EKyC5M8UkJn82JTUg3wf-56" edge="1">
          <mxGeometry relative="1" as="geometry">
            <mxPoint x="340" y="870" as="sourcePoint" />
            <mxPoint x="480" y="990" as="targetPoint" />
          </mxGeometry>
        </mxCell>
        <mxCell id="EKyC5M8UkJn82JTUg3wf-71" value="" style="endArrow=none;html=1;rounded=0;exitX=1;exitY=0.25;exitDx=0;exitDy=0;entryX=0;entryY=0.5;entryDx=0;entryDy=0;" parent="1" source="EKyC5M8UkJn82JTUg3wf-49" target="EKyC5M8UkJn82JTUg3wf-52" edge="1">
          <mxGeometry relative="1" as="geometry">
            <mxPoint x="320" y="800" as="sourcePoint" />
            <mxPoint x="460" y="870" as="targetPoint" />
          </mxGeometry>
        </mxCell>
        <mxCell id="EKyC5M8UkJn82JTUg3wf-72" value="1, N" style="text;strokeColor=none;fillColor=none;spacingLeft=4;spacingRight=4;overflow=hidden;rotatable=0;points=[[0,0.5],[1,0.5]];portConstraint=eastwest;fontSize=12;whiteSpace=wrap;html=1;" parent="1" vertex="1">
          <mxGeometry x="190" y="880" width="40" height="30" as="geometry" />
        </mxCell>
        <mxCell id="EKyC5M8UkJn82JTUg3wf-73" value="" style="endArrow=none;html=1;rounded=0;entryX=0;entryY=0.5;entryDx=0;entryDy=0;exitX=1;exitY=0.5;exitDx=0;exitDy=0;" parent="1" source="EKyC5M8UkJn82JTUg3wf-51" target="EKyC5M8UkJn82JTUg3wf-72" edge="1">
          <mxGeometry relative="1" as="geometry">
            <mxPoint x="100" y="1000" as="sourcePoint" />
            <mxPoint x="260" y="1000" as="targetPoint" />
            <Array as="points">
              <mxPoint x="110" y="895" />
            </Array>
          </mxGeometry>
        </mxCell>
        <mxCell id="EKyC5M8UkJn82JTUg3wf-74" value="" style="endArrow=none;html=1;rounded=0;entryX=0;entryY=0.5;entryDx=0;entryDy=0;exitX=1;exitY=0.5;exitDx=0;exitDy=0;" parent="1" source="EKyC5M8UkJn82JTUg3wf-64" target="EKyC5M8UkJn82JTUg3wf-75" edge="1">
          <mxGeometry relative="1" as="geometry">
            <mxPoint x="20" y="790" as="sourcePoint" />
            <mxPoint x="210" y="790" as="targetPoint" />
          </mxGeometry>
        </mxCell>
        <mxCell id="EKyC5M8UkJn82JTUg3wf-75" value="1, N" style="text;strokeColor=none;fillColor=none;spacingLeft=4;spacingRight=4;overflow=hidden;rotatable=0;points=[[0,0.5],[1,0.5]];portConstraint=eastwest;fontSize=12;whiteSpace=wrap;html=1;" parent="1" vertex="1">
          <mxGeometry x="80" y="775" width="40" height="30" as="geometry" />
        </mxCell>
        <mxCell id="EKyC5M8UkJn82JTUg3wf-76" value="0, 1" style="text;strokeColor=none;fillColor=none;spacingLeft=4;spacingRight=4;overflow=hidden;rotatable=0;points=[[0,0.5],[1,0.5]];portConstraint=eastwest;fontSize=12;whiteSpace=wrap;html=1;" parent="1" vertex="1">
          <mxGeometry x="-150" y="830" width="40" height="30" as="geometry" />
        </mxCell>
        <mxCell id="EKyC5M8UkJn82JTUg3wf-77" value="" style="endArrow=none;html=1;rounded=0;exitX=1;exitY=0.75;exitDx=0;exitDy=0;entryX=0;entryY=0.5;entryDx=0;entryDy=0;" parent="1" source="EKyC5M8UkJn82JTUg3wf-23" target="EKyC5M8UkJn82JTUg3wf-76" edge="1">
          <mxGeometry relative="1" as="geometry">
            <mxPoint x="100" y="900" as="sourcePoint" />
            <mxPoint x="-160" y="860" as="targetPoint" />
            <Array as="points">
              <mxPoint x="-150" y="960" />
            </Array>
          </mxGeometry>
        </mxCell>
        <mxCell id="EKyC5M8UkJn82JTUg3wf-78" value="1, 1" style="text;strokeColor=none;fillColor=none;spacingLeft=4;spacingRight=4;overflow=hidden;rotatable=0;points=[[0,0.5],[1,0.5]];portConstraint=eastwest;fontSize=12;whiteSpace=wrap;html=1;" parent="1" vertex="1">
          <mxGeometry x="-400" y="1000" width="40" height="30" as="geometry" />
        </mxCell>
        <mxCell id="EKyC5M8UkJn82JTUg3wf-79" value="" style="endArrow=none;html=1;rounded=0;exitX=1;exitY=0.5;exitDx=0;exitDy=0;entryX=0.475;entryY=-0.1;entryDx=0;entryDy=0;entryPerimeter=0;" parent="1" source="EKyC5M8UkJn82JTUg3wf-24" target="EKyC5M8UkJn82JTUg3wf-78" edge="1">
          <mxGeometry relative="1" as="geometry">
            <mxPoint x="100" y="800" as="sourcePoint" />
            <mxPoint x="260" y="800" as="targetPoint" />
            <Array as="points">
              <mxPoint x="-380" y="950" />
            </Array>
          </mxGeometry>
        </mxCell>
        <mxCell id="EKyC5M8UkJn82JTUg3wf-80" value="" style="endArrow=none;html=1;rounded=0;exitX=0.425;exitY=1.1;exitDx=0;exitDy=0;exitPerimeter=0;entryX=0.5;entryY=1;entryDx=0;entryDy=0;" parent="1" source="EKyC5M8UkJn82JTUg3wf-78" target="EKyC5M8UkJn82JTUg3wf-51" edge="1">
          <mxGeometry relative="1" as="geometry">
            <mxPoint x="100" y="800" as="sourcePoint" />
            <mxPoint x="260" y="800" as="targetPoint" />
            <Array as="points">
              <mxPoint x="-380" y="1140" />
              <mxPoint x="50" y="1140" />
            </Array>
          </mxGeometry>
        </mxCell>
        <mxCell id="EKyC5M8UkJn82JTUg3wf-81" value="" style="ellipse;whiteSpace=wrap;html=1;aspect=fixed;" parent="1" vertex="1">
          <mxGeometry x="876" y="635" width="15" height="15" as="geometry" />
        </mxCell>
        <mxCell id="EKyC5M8UkJn82JTUg3wf-82" value="" style="triangle;whiteSpace=wrap;html=1;rotation=90;" parent="1" vertex="1">
          <mxGeometry x="861" y="645" width="50" height="60" as="geometry" />
        </mxCell>
        <mxCell id="EKyC5M8UkJn82JTUg3wf-83" value="" style="endArrow=none;html=1;rounded=0;edgeStyle=orthogonalEdgeStyle;curved=1;" parent="1" edge="1">
          <mxGeometry width="50" height="50" relative="1" as="geometry">
            <mxPoint x="770" y="690" as="sourcePoint" />
            <mxPoint x="1040" y="690" as="targetPoint" />
            <Array as="points">
              <mxPoint x="770" y="750" />
              <mxPoint x="1040" y="750" />
            </Array>
          </mxGeometry>
        </mxCell>
        <mxCell id="EKyC5M8UkJn82JTUg3wf-84" value="" style="endArrow=none;html=1;rounded=0;exitX=0.5;exitY=1;exitDx=0;exitDy=0;entryX=0.5;entryY=0;entryDx=0;entryDy=0;" parent="1" source="EKyC5M8UkJn82JTUg3wf-1" target="EKyC5M8UkJn82JTUg3wf-81" edge="1">
          <mxGeometry relative="1" as="geometry">
            <mxPoint x="860" y="800" as="sourcePoint" />
            <mxPoint x="1020" y="800" as="targetPoint" />
          </mxGeometry>
        </mxCell>
        <mxCell id="EKyC5M8UkJn82JTUg3wf-85" value="" style="endArrow=none;html=1;rounded=0;exitX=0.5;exitY=0;exitDx=0;exitDy=0;entryX=0.5;entryY=1;entryDx=0;entryDy=0;" parent="1" source="EKyC5M8UkJn82JTUg3wf-4" target="EKyC5M8UkJn82JTUg3wf-82" edge="1">
          <mxGeometry relative="1" as="geometry">
            <mxPoint x="860" y="800" as="sourcePoint" />
            <mxPoint x="1020" y="800" as="targetPoint" />
          </mxGeometry>
        </mxCell>
        <mxCell id="EKyC5M8UkJn82JTUg3wf-86" value="" style="endArrow=none;html=1;rounded=0;exitX=0.5;exitY=0;exitDx=0;exitDy=0;entryX=1;entryY=0.5;entryDx=0;entryDy=0;" parent="1" source="EKyC5M8UkJn82JTUg3wf-2" target="EKyC5M8UkJn82JTUg3wf-82" edge="1">
          <mxGeometry relative="1" as="geometry">
            <mxPoint x="821" y="980" as="sourcePoint" />
            <mxPoint x="881" y="685" as="targetPoint" />
          </mxGeometry>
        </mxCell>
        <mxCell id="EKyC5M8UkJn82JTUg3wf-87" value="" style="endArrow=none;html=1;rounded=0;exitX=0.5;exitY=0;exitDx=0;exitDy=0;entryX=0.5;entryY=0;entryDx=0;entryDy=0;" parent="1" source="EKyC5M8UkJn82JTUg3wf-3" target="EKyC5M8UkJn82JTUg3wf-82" edge="1">
          <mxGeometry relative="1" as="geometry">
            <mxPoint x="1071" y="980" as="sourcePoint" />
            <mxPoint x="896" y="710" as="targetPoint" />
          </mxGeometry>
        </mxCell>
        <mxCell id="EKyC5M8UkJn82JTUg3wf-88" value="" style="triangle;whiteSpace=wrap;html=1;rotation=90;" parent="1" vertex="1">
          <mxGeometry x="-360" y="627.5" width="60" height="55" as="geometry" />
        </mxCell>
        <mxCell id="EKyC5M8UkJn82JTUg3wf-89" value="" style="endArrow=none;html=1;rounded=0;exitX=0;exitY=0.5;exitDx=0;exitDy=0;entryX=0.5;entryY=1;entryDx=0;entryDy=0;" parent="1" source="EKyC5M8UkJn82JTUg3wf-88" target="EKyC5M8UkJn82JTUg3wf-25" edge="1">
          <mxGeometry relative="1" as="geometry">
            <mxPoint x="-200" y="600" as="sourcePoint" />
            <mxPoint x="-40" y="600" as="targetPoint" />
          </mxGeometry>
        </mxCell>
        <mxCell id="EKyC5M8UkJn82JTUg3wf-90" value="" style="endArrow=none;html=1;rounded=0;exitX=0.5;exitY=0;exitDx=0;exitDy=0;entryX=0.5;entryY=1;entryDx=0;entryDy=0;" parent="1" source="EKyC5M8UkJn82JTUg3wf-24" target="EKyC5M8UkJn82JTUg3wf-88" edge="1">
          <mxGeometry relative="1" as="geometry">
            <mxPoint x="-200" y="600" as="sourcePoint" />
            <mxPoint x="-40" y="600" as="targetPoint" />
          </mxGeometry>
        </mxCell>
        <mxCell id="EKyC5M8UkJn82JTUg3wf-91" value="" style="endArrow=none;html=1;rounded=0;exitX=0.5;exitY=0;exitDx=0;exitDy=0;entryX=0.5;entryY=0;entryDx=0;entryDy=0;" parent="1" source="EKyC5M8UkJn82JTUg3wf-23" target="EKyC5M8UkJn82JTUg3wf-88" edge="1">
          <mxGeometry relative="1" as="geometry">
            <mxPoint x="-450" y="940" as="sourcePoint" />
            <mxPoint x="-334" y="665" as="targetPoint" />
          </mxGeometry>
        </mxCell>
        <mxCell id="EKyC5M8UkJn82JTUg3wf-92" value="Asociar" style="shape=rhombus;perimeter=rhombusPerimeter;whiteSpace=wrap;html=1;align=center;" parent="1" vertex="1">
          <mxGeometry x="830" y="1200" width="120" height="60" as="geometry" />
        </mxCell>
        <mxCell id="EKyC5M8UkJn82JTUg3wf-93" value="" style="endArrow=none;html=1;rounded=0;entryX=0.5;entryY=1;entryDx=0;entryDy=0;" parent="1" target="EKyC5M8UkJn82JTUg3wf-4" edge="1">
          <mxGeometry relative="1" as="geometry">
            <mxPoint x="810" y="1030" as="sourcePoint" />
            <mxPoint x="920" y="980" as="targetPoint" />
            <Array as="points" />
          </mxGeometry>
        </mxCell>
        <mxCell id="EKyC5M8UkJn82JTUg3wf-94" value="" style="endArrow=none;html=1;rounded=0;exitX=0;exitY=0.5;exitDx=0;exitDy=0;entryX=0.5;entryY=1;entryDx=0;entryDy=0;" parent="1" source="EKyC5M8UkJn82JTUg3wf-92" target="EKyC5M8UkJn82JTUg3wf-95" edge="1">
          <mxGeometry relative="1" as="geometry">
            <mxPoint x="886" y="640" as="sourcePoint" />
            <mxPoint x="871" y="510" as="targetPoint" />
            <Array as="points">
              <mxPoint x="811" y="1230" />
            </Array>
          </mxGeometry>
        </mxCell>
        <mxCell id="EKyC5M8UkJn82JTUg3wf-95" value="0, N" style="text;strokeColor=none;fillColor=none;spacingLeft=4;spacingRight=4;overflow=hidden;rotatable=0;points=[[0,0.5],[1,0.5]];portConstraint=eastwest;fontSize=12;whiteSpace=wrap;html=1;" parent="1" vertex="1">
          <mxGeometry x="791" y="1030" width="40" height="30" as="geometry" />
        </mxCell>
        <mxCell id="EKyC5M8UkJn82JTUg3wf-96" value="" style="endArrow=none;html=1;rounded=0;exitX=1;exitY=0.5;exitDx=0;exitDy=0;" parent="1" source="EKyC5M8UkJn82JTUg3wf-92" target="EKyC5M8UkJn82JTUg3wf-97" edge="1">
          <mxGeometry relative="1" as="geometry">
            <mxPoint x="946" y="1140" as="sourcePoint" />
            <mxPoint x="1010" y="990" as="targetPoint" />
            <Array as="points" />
          </mxGeometry>
        </mxCell>
        <mxCell id="EKyC5M8UkJn82JTUg3wf-97" value="0, 1" style="text;strokeColor=none;fillColor=none;spacingLeft=4;spacingRight=4;overflow=hidden;rotatable=0;points=[[0,0.5],[1,0.5]];portConstraint=eastwest;fontSize=12;whiteSpace=wrap;html=1;" parent="1" vertex="1">
          <mxGeometry x="930" y="975" width="40" height="30" as="geometry" />
        </mxCell>
        <mxCell id="EKyC5M8UkJn82JTUg3wf-98" value="" style="endArrow=none;html=1;rounded=0;entryX=0;entryY=0.5;entryDx=0;entryDy=0;exitX=1;exitY=0.5;exitDx=0;exitDy=0;" parent="1" source="EKyC5M8UkJn82JTUg3wf-97" target="EKyC5M8UkJn82JTUg3wf-2" edge="1">
          <mxGeometry relative="1" as="geometry">
            <mxPoint x="970" y="990" as="sourcePoint" />
            <mxPoint x="920" y="980" as="targetPoint" />
          </mxGeometry>
        </mxCell>
        <mxCell id="EKyC5M8UkJn82JTUg3wf-99" value="(1, 1) o (0, 1)" style="text;strokeColor=none;fillColor=none;spacingLeft=4;spacingRight=4;overflow=hidden;rotatable=0;points=[[0,0.5],[1,0.5]];portConstraint=eastwest;fontSize=12;whiteSpace=wrap;html=1;" parent="1" vertex="1">
          <mxGeometry x="-460" y="905" width="80" height="30" as="geometry" />
        </mxCell>
        <mxCell id="EKyC5M8UkJn82JTUg3wf-100" value="(1, 1) o (0, 1)" style="text;strokeColor=none;fillColor=none;spacingLeft=4;spacingRight=4;overflow=hidden;rotatable=0;points=[[0,0.5],[1,0.5]];portConstraint=eastwest;fontSize=12;whiteSpace=wrap;html=1;" parent="1" vertex="1">
          <mxGeometry x="-340" y="905" width="80" height="30" as="geometry" />
        </mxCell>
        <mxCell id="EKyC5M8UkJn82JTUg3wf-101" value="1, 1" style="text;strokeColor=none;fillColor=none;spacingLeft=4;spacingRight=4;overflow=hidden;rotatable=0;points=[[0,0.5],[1,0.5]];portConstraint=eastwest;fontSize=12;whiteSpace=wrap;html=1;" parent="1" vertex="1">
          <mxGeometry x="-330" y="535" width="40" height="30" as="geometry" />
        </mxCell>
        <mxCell id="EKyC5M8UkJn82JTUg3wf-102" value="1, 1" style="text;strokeColor=none;fillColor=none;spacingLeft=4;spacingRight=4;overflow=hidden;rotatable=0;points=[[0,0.5],[1,0.5]];portConstraint=eastwest;fontSize=12;whiteSpace=wrap;html=1;" parent="1" vertex="1">
          <mxGeometry x="890" y="600" width="40" height="30" as="geometry" />
        </mxCell>
        <mxCell id="EKyC5M8UkJn82JTUg3wf-103" value="0, 1" style="text;strokeColor=none;fillColor=none;spacingLeft=4;spacingRight=4;overflow=hidden;rotatable=0;points=[[0,0.5],[1,0.5]];portConstraint=eastwest;fontSize=12;whiteSpace=wrap;html=1;" parent="1" vertex="1">
          <mxGeometry x="821" y="945" width="40" height="30" as="geometry" />
        </mxCell>
        <mxCell id="EKyC5M8UkJn82JTUg3wf-104" value="0, 1" style="text;strokeColor=none;fillColor=none;spacingLeft=4;spacingRight=4;overflow=hidden;rotatable=0;points=[[0,0.5],[1,0.5]];portConstraint=eastwest;fontSize=12;whiteSpace=wrap;html=1;" parent="1" vertex="1">
          <mxGeometry x="1071" y="945" width="40" height="30" as="geometry" />
        </mxCell>
        <mxCell id="EKyC5M8UkJn82JTUg3wf-105" value="0, 1" style="text;strokeColor=none;fillColor=none;spacingLeft=4;spacingRight=4;overflow=hidden;rotatable=0;points=[[0,0.5],[1,0.5]];portConstraint=eastwest;fontSize=12;whiteSpace=wrap;html=1;" parent="1" vertex="1">
          <mxGeometry x="1311" y="940" width="40" height="30" as="geometry" />
        </mxCell>
        <mxCell id="EKyC5M8UkJn82JTUg3wf-106" value="&lt;div style=&quot;line-height: 120%;&quot;&gt;&lt;font style=&quot;font-size: 15px;&quot;&gt;&lt;b&gt;Persona &lt;/b&gt;(&lt;u style=&quot;font-weight: bold;&quot;&gt;DNI&lt;/u&gt;:&lt;b&gt;&amp;nbsp;&lt;/b&gt;&lt;/font&gt;&lt;font style=&quot;font-size: 15px;&quot;&gt;&lt;font color=&quot;#808080&quot;&gt;Varchar&lt;/font&gt;&lt;b&gt;,&lt;/b&gt; Nombre:&amp;nbsp;&lt;/font&gt;&lt;font style=&quot;font-size: 15px;&quot;&gt;&lt;font color=&quot;#808080&quot;&gt;Varchar&lt;/font&gt;,&amp;nbsp; Apellido:&amp;nbsp;&lt;/font&gt;&lt;font style=&quot;font-size: 15px;&quot;&gt;&lt;font color=&quot;#808080&quot;&gt;Varchar&lt;/font&gt;, Telefono_fijo:&amp;nbsp;&lt;/font&gt;&lt;font color=&quot;#808080&quot;&gt;Varchar&lt;/font&gt;&lt;font style=&quot;font-size: 15px;&quot;&gt;, Movil: &lt;font color=&quot;#808080&quot;&gt;V&lt;/font&gt;&lt;/font&gt;&lt;font color=&quot;#808080&quot;&gt;archar&lt;/font&gt;&lt;span style=&quot;background-color: rgb(219, 219, 219);&quot;&gt;&lt;font style=&quot;font-size: 15px;&quot;&gt;)&lt;/font&gt;&lt;/span&gt;&lt;/div&gt;&lt;div style=&quot;line-height: 120%;&quot;&gt;&lt;span style=&quot;background-color: rgb(219, 219, 219);&quot;&gt;&lt;font style=&quot;font-size: 15px;&quot;&gt;&lt;br&gt;&lt;/font&gt;&lt;/span&gt;&lt;/div&gt;&lt;div style=&quot;line-height: 120%;&quot;&gt;&lt;font style=&quot;font-size: 15px;&quot;&gt;&lt;b&gt;Trabajador &lt;/b&gt;(&lt;u&gt;&lt;b&gt;Codigo_personal&lt;/b&gt;&lt;/u&gt;: &lt;font style=&quot;&quot; color=&quot;#808080&quot;&gt;Varchar&lt;/font&gt;, &lt;b&gt;DNI: [&lt;i&gt;REF_Persona DNI&lt;/i&gt;]&lt;/b&gt;)&lt;/font&gt;&lt;/div&gt;&lt;div style=&quot;line-height: 120%;&quot;&gt;&lt;font style=&quot;font-size: 15px;&quot;&gt;&lt;br&gt;&lt;/font&gt;&lt;/div&gt;&lt;div style=&quot;line-height: 120%;&quot;&gt;&lt;font style=&quot;font-size: 15px;&quot;&gt;&lt;b&gt;Cliente &lt;/b&gt;(&lt;/font&gt;&lt;font style=&quot;font-size: 15px;&quot;&gt;&lt;u style=&quot;font-weight: bold;&quot;&gt;Codigo_personal&lt;/u&gt;:&lt;b&gt;&amp;nbsp;&lt;/b&gt;&lt;/font&gt;&lt;font color=&quot;#808080&quot;&gt;Varchar&lt;/font&gt;&lt;font style=&quot;font-size: 15px;&quot;&gt;&lt;b&gt;,&lt;/b&gt;&amp;nbsp;&lt;b&gt;DNI&lt;/b&gt;:&amp;nbsp;&lt;/font&gt;&lt;b&gt;[&lt;i&gt;REF_Persona DNI&lt;/i&gt;]&lt;/b&gt;&lt;span style=&quot;background-color: rgb(219, 219, 219);&quot;&gt;&lt;font style=&quot;font-size: 15px;&quot;&gt;)&lt;/font&gt;&lt;/span&gt;&lt;/div&gt;&lt;div style=&quot;line-height: 120%;&quot;&gt;&lt;span style=&quot;background-color: rgb(219, 219, 219);&quot;&gt;&lt;font style=&quot;font-size: 15px;&quot;&gt;&lt;br&gt;&lt;/font&gt;&lt;/span&gt;&lt;/div&gt;&lt;div style=&quot;line-height: 120%;&quot;&gt;&lt;font style=&quot;font-size: 15px;&quot;&gt;&lt;b&gt;Inmueble &lt;/b&gt;(&lt;u style=&quot;font-weight: bold;&quot;&gt;Codigo_inmueble&lt;/u&gt;:&amp;nbsp;&lt;/font&gt;&lt;font color=&quot;#808080&quot;&gt;Varchar&lt;/font&gt;&lt;font style=&quot;font-size: 15px;&quot;&gt;, Direccion:&amp;nbsp;&lt;/font&gt;&lt;font color=&quot;#808080&quot;&gt;Varchar&lt;/font&gt;&lt;font style=&quot;font-size: 15px;&quot;&gt;, Descripcion:&amp;nbsp;&lt;/font&gt;&lt;font color=&quot;#808080&quot;&gt;Varchar&lt;/font&gt;&lt;span style=&quot;background-color: rgb(219, 219, 219);&quot;&gt;&lt;font style=&quot;font-size: 15px;&quot;&gt;, Metros: &lt;font color=&quot;#808080&quot;&gt;double&lt;/font&gt;)&lt;/font&gt;&lt;/span&gt;&lt;/div&gt;&lt;div style=&quot;line-height: 120%;&quot;&gt;&lt;span style=&quot;background-color: rgb(219, 219, 219);&quot;&gt;&lt;font style=&quot;font-size: 15px;&quot;&gt;&lt;br&gt;&lt;/font&gt;&lt;/span&gt;&lt;/div&gt;&lt;div style=&quot;line-height: 120%;&quot;&gt;&lt;font style=&quot;font-size: 15px;&quot;&gt;&lt;b&gt;Piso &lt;/b&gt;(&lt;u style=&quot;font-weight: bold;&quot;&gt;Codigo_inmuebl&lt;/u&gt;&lt;b&gt;e&lt;/b&gt;:&lt;b&gt;&amp;nbsp;&lt;/b&gt;&lt;/font&gt;&lt;font style=&quot;&quot; color=&quot;#808080&quot;&gt;Varchar&lt;/font&gt;&lt;font style=&quot;font-size: 15px;&quot;&gt;, Codigo_especial:&amp;nbsp;&lt;/font&gt;&lt;font color=&quot;#808080&quot;&gt;Varchar&lt;/font&gt;&lt;span style=&quot;background-color: rgb(219, 219, 219);&quot;&gt;&lt;font style=&quot;font-size: 15px;&quot;&gt;)&lt;/font&gt;&lt;/span&gt;&lt;/div&gt;&lt;div style=&quot;line-height: 120%;&quot;&gt;&lt;span style=&quot;background-color: rgb(219, 219, 219);&quot;&gt;&lt;font style=&quot;font-size: 15px;&quot;&gt;&lt;br&gt;&lt;/font&gt;&lt;/span&gt;&lt;/div&gt;&lt;div style=&quot;line-height: 120%;&quot;&gt;&lt;font style=&quot;font-size: 15px;&quot;&gt;&lt;b&gt;Garaje &lt;/b&gt;(&lt;u style=&quot;font-weight: bold;&quot;&gt;Codigo_inmueble&lt;/u&gt;:&amp;nbsp;&lt;/font&gt;&lt;font style=&quot;&quot; color=&quot;#808080&quot;&gt;Varchar&lt;/font&gt;&lt;font style=&quot;font-size: 15px;&quot;&gt;, Planta:&amp;nbsp;&lt;/font&gt;&lt;font color=&quot;#808080&quot;&gt;Varchar&lt;/font&gt;&lt;font style=&quot;font-size: 15px;&quot;&gt;, Numero: &lt;font color=&quot;#808080&quot;&gt;tinyint&lt;/font&gt;, &lt;i&gt;&lt;b&gt;Codigo_inmueble:&amp;nbsp;&lt;/b&gt;&lt;/i&gt;&lt;/font&gt;&lt;b&gt;[&lt;i&gt;REF_Inmueble Codigo_inmueble&lt;/i&gt;], Codigo_Piso: [&lt;i&gt;REF_Piso Codigo_inmueble&lt;/i&gt;]&lt;/b&gt;&lt;span style=&quot;background-color: rgb(219, 219, 219);&quot;&gt;&lt;font style=&quot;font-size: 15px;&quot;&gt;)&lt;/font&gt;&lt;/span&gt;&lt;/div&gt;&lt;div style=&quot;line-height: 120%;&quot;&gt;&lt;span style=&quot;background-color: rgb(219, 219, 219);&quot;&gt;&lt;font style=&quot;font-size: 15px;&quot;&gt;&lt;br&gt;&lt;/font&gt;&lt;/span&gt;&lt;/div&gt;&lt;div style=&quot;line-height: 120%;&quot;&gt;&lt;font style=&quot;font-size: 15px;&quot;&gt;&lt;b&gt;Local &lt;/b&gt;(&lt;u style=&quot;font-weight: bold;&quot;&gt;Codigo_inmueble&lt;/u&gt;:&amp;nbsp;&lt;/font&gt;&lt;font style=&quot;&quot; color=&quot;#808080&quot;&gt;Varchar&lt;/font&gt;&lt;font style=&quot;font-size: 15px;&quot;&gt;, Uso: &lt;font color=&quot;#808080&quot;&gt;Varchar&lt;/font&gt;, Servicio: &lt;font color=&quot;#808080&quot;&gt;boolean&lt;/font&gt;, &lt;b&gt;&lt;i&gt;Codigo_Inmueble&lt;/i&gt;:&amp;nbsp;&lt;/b&gt;&lt;/font&gt;&lt;b&gt;[&lt;i&gt;REF_Inmueble Codigo_inmueble&lt;/i&gt;]&lt;/b&gt;&lt;span style=&quot;background-color: rgb(219, 219, 219);&quot;&gt;&lt;font style=&quot;font-size: 15px;&quot;&gt;)&amp;nbsp;&lt;/font&gt;&lt;/span&gt;&lt;/div&gt;&lt;div style=&quot;line-height: 120%;&quot;&gt;&lt;span style=&quot;background-color: rgb(219, 219, 219);&quot;&gt;&lt;font style=&quot;font-size: 15px;&quot;&gt;&lt;br&gt;&lt;/font&gt;&lt;/span&gt;&lt;/div&gt;&lt;div style=&quot;line-height: 120%;&quot;&gt;&lt;font style=&quot;font-size: 15px;&quot;&gt;&lt;b&gt;Propiedad &lt;/b&gt;(&lt;b&gt;&lt;u&gt;Codigo_de_Compra&lt;/u&gt;&lt;/b&gt;:&amp;nbsp;&lt;/font&gt;&lt;font style=&quot;&quot; color=&quot;#808080&quot;&gt;Varchar&lt;/font&gt;&lt;font style=&quot;font-size: 15px;&quot;&gt;, Valor: &lt;font color=&quot;#808080&quot;&gt;int&lt;/font&gt;, Fecha: &lt;font color=&quot;#808080&quot;&gt;date&lt;/font&gt;, &lt;i&gt;&lt;b&gt;Codigo_Inmueble:&amp;nbsp;&lt;/b&gt;&lt;/i&gt;&lt;/font&gt;&lt;b&gt;[&lt;i&gt;REF_Inmueble Codigo_inmueble&lt;/i&gt;]&lt;/b&gt;&lt;span style=&quot;background-color: rgb(219, 219, 219);&quot;&gt;&lt;font style=&quot;font-size: 15px;&quot;&gt;)&lt;/font&gt;&lt;/span&gt;&lt;/div&gt;&lt;div style=&quot;line-height: 120%;&quot;&gt;&lt;span style=&quot;background-color: rgb(219, 219, 219);&quot;&gt;&lt;font style=&quot;font-size: 15px;&quot;&gt;&lt;br&gt;&lt;/font&gt;&lt;/span&gt;&lt;/div&gt;&lt;div style=&quot;line-height: 120%;&quot;&gt;&lt;b&gt;Adqurir &lt;/b&gt;(&lt;u style=&quot;font-weight: bold;&quot;&gt;Codigo_Personal_Cliente&lt;/u&gt;: &lt;b&gt;[&lt;i&gt;REF_Cliente Codigo_Personal&lt;/i&gt;]&lt;/b&gt;, &lt;u style=&quot;font-weight: bold;&quot;&gt;Codigo_Compra&lt;/u&gt;: &lt;b&gt;[&lt;i&gt;REF_Propiedad Codigo_compra&lt;/i&gt;]&lt;/b&gt;&lt;span style=&quot;background-color: initial;&quot;&gt;)&lt;/span&gt;&lt;/div&gt;&lt;div style=&quot;line-height: 120%;&quot;&gt;&lt;span style=&quot;background-color: initial;&quot;&gt;&lt;br&gt;&lt;/span&gt;&lt;/div&gt;&lt;div style=&quot;line-height: 120%;&quot;&gt;&lt;font style=&quot;border-color: var(--border-color);&quot;&gt;&lt;b style=&quot;border-color: var(--border-color);&quot;&gt;Alquiler&amp;nbsp;&lt;/b&gt;(&lt;b style=&quot;border-color: var(--border-color);&quot;&gt;I&lt;/b&gt;&lt;u style=&quot;border-color: var(--border-color); font-weight: bold;&quot;&gt;D&lt;/u&gt;:&amp;nbsp;&lt;/font&gt;&lt;span style=&quot;border-color: var(--border-color);&quot;&gt;&lt;font color=&quot;#808080&quot;&gt;Varchar&lt;/font&gt;&lt;/span&gt;&lt;font style=&quot;border-color: var(--border-color);&quot;&gt;, numero_alquiler: &lt;font color=&quot;#808080&quot;&gt;int&lt;/font&gt;,&amp;nbsp;&lt;i style=&quot;border-color: var(--border-color);&quot;&gt;&lt;b&gt;Codigo_Interno_Trabajador: [REF_Trabajdor Codigo_personal]&lt;/b&gt;&lt;/i&gt;&lt;/font&gt;&lt;font style=&quot;border-color: var(--border-color);&quot;&gt;,&amp;nbsp;&lt;b&gt;&lt;i style=&quot;border-color: var(--border-color);&quot;&gt;Codigo_Interno_Cliente: &lt;/i&gt;&lt;span style=&quot;border-color: var(--border-color);&quot;&gt;[&lt;i&gt;REF_Cliente Codigo_personal&lt;/i&gt;]&lt;/span&gt;&lt;/b&gt;&lt;/font&gt;&lt;font style=&quot;border-color: var(--border-color);&quot;&gt;&lt;i style=&quot;border-color: var(--border-color);&quot;&gt;, &lt;b&gt;Codigo_inmueble:&amp;nbsp;&lt;/b&gt;&lt;/i&gt;&lt;/font&gt;&lt;i&gt;&lt;b&gt;[REF_Inmueble Codigo_inmueble]&lt;/b&gt;&lt;/i&gt;&lt;font style=&quot;border-color: var(--border-color);&quot;&gt;)&lt;/font&gt;&lt;span style=&quot;background-color: initial;&quot;&gt;&lt;br&gt;&lt;/span&gt;&lt;/div&gt;&lt;div style=&quot;line-height: 120%;&quot;&gt;&lt;font style=&quot;border-color: var(--border-color);&quot;&gt;&lt;br&gt;&lt;/font&gt;&lt;/div&gt;&lt;div style=&quot;line-height: 120%;&quot;&gt;&lt;font style=&quot;border-color: var(--border-color);&quot;&gt;&lt;b&gt;Pago_Alquiler &lt;/b&gt;(&lt;b&gt;&lt;u&gt;ID&lt;/u&gt;&lt;/b&gt;: &lt;font color=&quot;#808080&quot;&gt;int&lt;/font&gt;, Valor_Pago: &lt;font color=&quot;#808080&quot;&gt;decimal&lt;/font&gt;, AÃ±o: &lt;font color=&quot;#808080&quot;&gt;int&lt;/font&gt;, Mes: &lt;font color=&quot;#808080&quot;&gt;int&lt;/font&gt;, &lt;b&gt;&lt;i&gt;ID_Alquiler&lt;/i&gt;: &lt;i&gt;[REF_Alquirer ID_alquiler&lt;/i&gt;&lt;/b&gt;&lt;/font&gt;&lt;i style=&quot;background-color: initial;&quot;&gt;&lt;b&gt;]&lt;/b&gt;&lt;/i&gt;&lt;span style=&quot;background-color: initial;&quot;&gt;)&lt;/span&gt;&lt;/div&gt;&lt;div style=&quot;line-height: 120%;&quot;&gt;&lt;font style=&quot;border-color: var(--border-color);&quot;&gt;&lt;br&gt;&lt;/font&gt;&lt;/div&gt;" style="text;html=1;strokeColor=none;fillColor=#dbdbdb;align=left;verticalAlign=top;whiteSpace=wrap;rounded=0;fontSize=15;spacing=5;" parent="1" vertex="1">
          <mxGeometry x="-220" y="1560" width="1180" height="420" as="geometry" />
        </mxCell>
        <mxCell id="EKyC5M8UkJn82JTUg3wf-107" value="Propiedad" style="whiteSpace=wrap;html=1;align=center;" parent="1" vertex="1">
          <mxGeometry x="200" y="190" width="100" height="40" as="geometry" />
        </mxCell>
        <mxCell id="EKyC5M8UkJn82JTUg3wf-108" value="Codigo_de_ compra" style="ellipse;whiteSpace=wrap;html=1;align=center;fontStyle=4;" parent="1" vertex="1">
          <mxGeometry x="200" y="70" width="100" height="40" as="geometry" />
        </mxCell>
        <mxCell id="EKyC5M8UkJn82JTUg3wf-109" value="1, N" style="text;strokeColor=none;fillColor=none;spacingLeft=4;spacingRight=4;overflow=hidden;rotatable=0;points=[[0,0.5],[1,0.5]];portConstraint=eastwest;fontSize=12;whiteSpace=wrap;html=1;" parent="1" vertex="1">
          <mxGeometry x="60" y="195" width="40" height="30" as="geometry" />
        </mxCell>
        <mxCell id="EKyC5M8UkJn82JTUg3wf-110" value="" style="endArrow=none;html=1;rounded=0;exitX=0.5;exitY=0;exitDx=0;exitDy=0;entryX=0;entryY=0.5;entryDx=0;entryDy=0;" parent="1" source="EKyC5M8UkJn82JTUg3wf-38" target="EKyC5M8UkJn82JTUg3wf-109" edge="1">
          <mxGeometry relative="1" as="geometry">
            <mxPoint x="150" y="150" as="sourcePoint" />
            <mxPoint x="310" y="150" as="targetPoint" />
            <Array as="points">
              <mxPoint y="210" />
            </Array>
          </mxGeometry>
        </mxCell>
        <mxCell id="EKyC5M8UkJn82JTUg3wf-111" value="" style="endArrow=none;html=1;rounded=0;exitX=1;exitY=0.5;exitDx=0;exitDy=0;entryX=0;entryY=0.5;entryDx=0;entryDy=0;" parent="1" source="EKyC5M8UkJn82JTUg3wf-109" target="EKyC5M8UkJn82JTUg3wf-107" edge="1">
          <mxGeometry relative="1" as="geometry">
            <mxPoint x="260" y="500" as="sourcePoint" />
            <mxPoint x="260" y="300" as="targetPoint" />
          </mxGeometry>
        </mxCell>
        <mxCell id="EKyC5M8UkJn82JTUg3wf-112" value="Pago_alquiler" style="whiteSpace=wrap;html=1;align=center;" parent="1" vertex="1">
          <mxGeometry x="290" y="1200" width="100" height="40" as="geometry" />
        </mxCell>
        <mxCell id="EKyC5M8UkJn82JTUg3wf-113" value="ID" style="ellipse;whiteSpace=wrap;html=1;align=center;fontStyle=4;" parent="1" vertex="1">
          <mxGeometry x="290" y="1400" width="100" height="40" as="geometry" />
        </mxCell>
        <mxCell id="EKyC5M8UkJn82JTUg3wf-114" value="" style="endArrow=none;html=1;rounded=0;exitX=0.5;exitY=0;exitDx=0;exitDy=0;entryX=0.5;entryY=1;entryDx=0;entryDy=0;" parent="1" source="EKyC5M8UkJn82JTUg3wf-113" target="EKyC5M8UkJn82JTUg3wf-112" edge="1">
          <mxGeometry relative="1" as="geometry">
            <mxPoint x="400" y="1250" as="sourcePoint" />
            <mxPoint x="480" y="1359" as="targetPoint" />
          </mxGeometry>
        </mxCell>
        <mxCell id="EKyC5M8UkJn82JTUg3wf-115" value="Pagar" style="shape=rhombus;perimeter=rhombusPerimeter;whiteSpace=wrap;html=1;align=center;" parent="1" vertex="1">
          <mxGeometry x="280" y="1020" width="120" height="60" as="geometry" />
        </mxCell>
        <mxCell id="EKyC5M8UkJn82JTUg3wf-116" value="1, N" style="text;strokeColor=none;fillColor=none;spacingLeft=4;spacingRight=4;overflow=hidden;rotatable=0;points=[[0,0.5],[1,0.5]];portConstraint=eastwest;fontSize=12;whiteSpace=wrap;html=1;" parent="1" vertex="1">
          <mxGeometry x="320" y="1160" width="40" height="30" as="geometry" />
        </mxCell>
        <mxCell id="EKyC5M8UkJn82JTUg3wf-117" value="1, 1" style="text;strokeColor=none;fillColor=none;spacingLeft=4;spacingRight=4;overflow=hidden;rotatable=0;points=[[0,0.5],[1,0.5]];portConstraint=eastwest;fontSize=12;whiteSpace=wrap;html=1;" parent="1" vertex="1">
          <mxGeometry x="280" y="880" width="40" height="30" as="geometry" />
        </mxCell>
        <mxCell id="EKyC5M8UkJn82JTUg3wf-118" value="" style="endArrow=none;html=1;rounded=0;exitX=0.5;exitY=0;exitDx=0;exitDy=0;entryX=0.5;entryY=1;entryDx=0;entryDy=0;entryPerimeter=0;" parent="1" source="EKyC5M8UkJn82JTUg3wf-112" target="EKyC5M8UkJn82JTUg3wf-116" edge="1">
          <mxGeometry relative="1" as="geometry">
            <mxPoint x="106" y="1070" as="sourcePoint" />
            <mxPoint x="266" y="1070" as="targetPoint" />
          </mxGeometry>
        </mxCell>
        <mxCell id="EKyC5M8UkJn82JTUg3wf-119" value="" style="endArrow=none;html=1;rounded=0;exitX=0.5;exitY=1;exitDx=0;exitDy=0;entryX=0.5;entryY=0;entryDx=0;entryDy=0;entryPerimeter=0;" parent="1" source="EKyC5M8UkJn82JTUg3wf-115" target="EKyC5M8UkJn82JTUg3wf-116" edge="1">
          <mxGeometry relative="1" as="geometry">
            <mxPoint x="90" y="1070" as="sourcePoint" />
            <mxPoint x="250" y="1070" as="targetPoint" />
          </mxGeometry>
        </mxCell>
        <mxCell id="EKyC5M8UkJn82JTUg3wf-120" value="" style="endArrow=none;html=1;rounded=0;exitX=0.5;exitY=0;exitDx=0;exitDy=0;entryX=1;entryY=0.5;entryDx=0;entryDy=0;" parent="1" source="EKyC5M8UkJn82JTUg3wf-115" target="EKyC5M8UkJn82JTUg3wf-117" edge="1">
          <mxGeometry relative="1" as="geometry">
            <mxPoint x="334" y="1090" as="sourcePoint" />
            <mxPoint x="334" y="1170" as="targetPoint" />
            <Array as="points">
              <mxPoint x="340" y="895" />
            </Array>
          </mxGeometry>
        </mxCell>
        <mxCell id="EKyC5M8UkJn82JTUg3wf-121" value="" style="endArrow=none;html=1;rounded=0;exitX=0.5;exitY=1;exitDx=0;exitDy=0;entryX=0;entryY=0.5;entryDx=0;entryDy=0;" parent="1" source="EKyC5M8UkJn82JTUg3wf-49" target="EKyC5M8UkJn82JTUg3wf-117" edge="1">
          <mxGeometry relative="1" as="geometry">
            <mxPoint x="90" y="970" as="sourcePoint" />
            <mxPoint x="250" y="970" as="targetPoint" />
            <Array as="points">
              <mxPoint x="260" y="895" />
            </Array>
          </mxGeometry>
        </mxCell>
        <mxCell id="EKyC5M8UkJn82JTUg3wf-122" value="Vincular" style="shape=rhombus;perimeter=rhombusPerimeter;whiteSpace=wrap;html=1;align=center;" parent="1" vertex="1">
          <mxGeometry x="490" y="370" width="120" height="60" as="geometry" />
        </mxCell>
        <mxCell id="EKyC5M8UkJn82JTUg3wf-123" value="" style="endArrow=none;html=1;rounded=0;exitX=1;exitY=0.5;exitDx=0;exitDy=0;entryX=0;entryY=0;entryDx=0;entryDy=0;" parent="1" source="EKyC5M8UkJn82JTUg3wf-40" target="EKyC5M8UkJn82JTUg3wf-1" edge="1">
          <mxGeometry relative="1" as="geometry">
            <mxPoint x="610" y="470" as="sourcePoint" />
            <mxPoint x="770" y="470" as="targetPoint" />
            <Array as="points">
              <mxPoint x="830" y="535" />
            </Array>
          </mxGeometry>
        </mxCell>
        <mxCell id="EKyC5M8UkJn82JTUg3wf-124" value="1, N" style="text;strokeColor=none;fillColor=none;spacingLeft=4;spacingRight=4;overflow=hidden;rotatable=0;points=[[0,0.5],[1,0.5]];portConstraint=eastwest;fontSize=12;whiteSpace=wrap;html=1;" parent="1" vertex="1">
          <mxGeometry x="374" y="195" width="40" height="30" as="geometry" />
        </mxCell>
        <mxCell id="EKyC5M8UkJn82JTUg3wf-125" value="" style="endArrow=none;html=1;rounded=0;exitX=1;exitY=0.5;exitDx=0;exitDy=0;entryX=0;entryY=0.5;entryDx=0;entryDy=0;" parent="1" source="EKyC5M8UkJn82JTUg3wf-107" target="EKyC5M8UkJn82JTUg3wf-124" edge="1">
          <mxGeometry relative="1" as="geometry">
            <mxPoint x="610" y="470" as="sourcePoint" />
            <mxPoint x="770" y="470" as="targetPoint" />
          </mxGeometry>
        </mxCell>
        <mxCell id="EKyC5M8UkJn82JTUg3wf-126" value="" style="endArrow=none;html=1;rounded=0;exitX=1;exitY=0.5;exitDx=0;exitDy=0;entryX=0;entryY=0.5;entryDx=0;entryDy=0;" parent="1" source="EKyC5M8UkJn82JTUg3wf-124" target="EKyC5M8UkJn82JTUg3wf-122" edge="1">
          <mxGeometry relative="1" as="geometry">
            <mxPoint x="310" y="220" as="sourcePoint" />
            <mxPoint x="384" y="220" as="targetPoint" />
            <Array as="points">
              <mxPoint x="490" y="210" />
            </Array>
          </mxGeometry>
        </mxCell>
        <mxCell id="EKyC5M8UkJn82JTUg3wf-127" value="Codigo_personal" style="ellipse;whiteSpace=wrap;html=1;align=center;fontStyle=4;" parent="1" vertex="1">
          <mxGeometry x="-510" y="1050" width="100" height="40" as="geometry" />
        </mxCell>
        <mxCell id="EKyC5M8UkJn82JTUg3wf-128" value="Codigo_personal" style="ellipse;whiteSpace=wrap;html=1;align=center;fontStyle=4;" parent="1" vertex="1">
          <mxGeometry x="-310" y="1050" width="100" height="40" as="geometry" />
        </mxCell>
      </root>
    </mxGraphModel>
  </diagram>
</mxfile>
